<svg xmlns="http://www.w3.org/2000/svg" xmlns:xlink="http://www.w3.org/1999/xlink" width="20" height="20" viewBox="0 0 20 20">
  <defs>
    <clipPath id="clip-phn">
      <rect width="20" height="20"/>
    </clipPath>
  </defs>
  <g id="phn" clip-path="url(#clip-phn)">
    <rect width="20" height="20" fill="rgba(251,251,251,0)"/>
    <g id="Icon">
      <rect id="Area" width="20" height="20" fill="#fcfcfc" opacity="0"/>
      <g id="Icon-2" data-name="Icon" transform="translate(1.29 2.499)">
        <path id="Path" d="M18.333,14.1v2.5a1.667,1.667,0,0,1-1.816,1.667,16.488,16.488,0,0,1-7.192-2.559,16.24,16.24,0,0,1-5-5A16.488,16.488,0,0,1,1.767,3.483,1.667,1.667,0,0,1,3.425,1.667h2.5A1.666,1.666,0,0,1,7.592,3.1a10.68,10.68,0,0,0,.583,2.342A1.665,1.665,0,0,1,7.8,7.2L6.742,8.258a13.319,13.319,0,0,0,5,5L12.8,12.2a1.665,1.665,0,0,1,1.758-.375,10.68,10.68,0,0,0,2.342.583A1.667,1.667,0,0,1,18.333,14.1Z" transform="translate(-1.29 -2.499)" fill="none" stroke="#d93931" stroke-linecap="round" stroke-linejoin="round" stroke-width="1.667"/>
      </g>
    </g>
  </g>
</svg>
